<svg width="24" height="24" viewBox="0 0 24 24" fill="none" xmlns="http://www.w3.org/2000/svg">
<path d="M19.7627 7.15391C19.1795 7.41187 18.5611 7.58129 17.9279 7.65655C18.5953 7.25737 19.0949 6.62913 19.3334 5.88891C18.707 6.26169 18.0203 6.52294 17.3045 6.66426C16.8237 6.14984 16.1865 5.80868 15.4918 5.69381C14.7971 5.57893 14.0839 5.69679 13.4631 6.02905C12.8423 6.36131 12.3487 6.88937 12.059 7.53112C11.7693 8.17287 11.6997 8.89236 11.8611 9.57773C10.5908 9.51407 9.34812 9.18397 8.21371 8.60886C7.0793 8.03376 6.07852 7.22652 5.27634 6.23954C4.9924 6.72724 4.84318 7.28166 4.84398 7.846C4.84398 8.95363 5.40773 9.93218 6.26481 10.5051C5.7576 10.4891 5.26155 10.3521 4.81801 10.1056V10.1453C4.81816 10.883 5.07343 11.5979 5.54053 12.1689C6.00763 12.7399 6.65782 13.1317 7.38085 13.278C6.91 13.4056 6.4163 13.4244 5.9371 13.333C6.14096 13.968 6.53829 14.5233 7.07346 14.9212C7.60863 15.3191 8.25484 15.5397 8.92162 15.5521C8.25893 16.0726 7.50016 16.4573 6.68868 16.6843C5.8772 16.9113 5.02894 16.9762 4.19238 16.8752C5.65271 17.8143 7.35266 18.3129 9.08891 18.3113C14.9655 18.3113 18.1792 13.443 18.1792 9.221C18.1792 9.0835 18.1754 8.94447 18.1693 8.8085C18.7948 8.3564 19.3346 7.79636 19.7635 7.15468L19.7627 7.15391Z" fill="white"/>
</svg>
