<svg width="113" height="113" viewBox="0 0 113 113" fill="none" xmlns="http://www.w3.org/2000/svg">
<g opacity="0.5" clip-path="url(#clip0_33_478)">
<path d="M105.001 69.2861C105.559 68.9792 106.023 68.5271 106.345 67.9779C106.667 67.4286 106.834 66.8026 106.829 66.166C106.825 65.5294 106.648 64.9059 106.318 64.3616C105.988 63.8172 105.517 63.3722 104.954 63.0737L70.5394 44.8524L42.1871 73.2047C41.5249 73.8669 40.6267 74.239 39.6901 74.239C38.7536 74.239 37.8554 73.8669 37.1932 73.2047C36.5309 72.5425 36.1589 71.6443 36.1589 70.7077C36.1589 69.7712 36.5309 68.873 37.1932 68.2108L65.5454 39.8585L47.3242 5.4436C47.0257 4.88135 46.5807 4.41025 46.0363 4.08017C45.4919 3.7501 44.8685 3.57332 44.2319 3.56854C43.5953 3.56377 42.9692 3.73117 42.42 4.05305C41.8707 4.37491 41.4187 4.83928 41.1118 5.397C25.4931 33.8247 14.8428 64.7104 9.61997 96.7228C9.5295 97.2758 9.57192 97.8423 9.7437 98.3756C9.91549 98.909 10.2117 99.3937 10.6079 99.7899C11.0041 100.186 11.4889 100.482 12.0222 100.654C12.5556 100.826 13.1221 100.868 13.675 100.778C45.6875 95.5552 76.5733 84.9049 105.001 69.2861Z" fill="#CF4FA9"/>
</g>
<defs>
<clipPath id="clip0_33_478">
<rect width="112.229" height="112.229" fill="white" transform="translate(113 113) scale(1.00687) rotate(-180)"/>
</clipPath>
</defs>
</svg>
