<svg width="109" height="109" viewBox="0 0 109 109" fill="none" xmlns="http://www.w3.org/2000/svg">
<g opacity="0.7" clip-path="url(#clip0_33_463)">
<path fill-rule="evenodd" clip-rule="evenodd" d="M59.7141 12.5423C59.0239 11.8861 58.1091 11.5203 57.1581 11.5203C56.2071 11.5203 55.2923 11.8861 54.6021 12.5423C44.0871 22.5568 30.0828 28.0484 15.5833 27.8431C14.7934 27.8328 14.0207 28.0753 13.3776 28.5354C12.7345 28.9955 12.2543 29.6492 12.0068 30.4015C9.91633 36.791 8.85452 43.4737 8.86136 50.1982C8.86136 79.7169 28.9924 104.511 56.2318 111.541C56.8394 111.698 57.4768 111.698 58.0844 111.541C85.3238 104.511 105.455 79.7169 105.455 50.1982C105.455 43.293 104.35 36.6361 102.309 30.4015C102.063 29.6482 101.583 28.9935 100.94 28.5324C100.297 28.0714 99.5234 27.8282 98.7329 27.8382L98.0246 27.8431C83.1838 27.8431 69.7053 22.0308 59.7141 12.5423ZM75.0403 52.3642C75.3375 51.967 75.5525 51.5143 75.6728 51.0326C75.793 50.5509 75.816 50.0499 75.7405 49.5592C75.6649 49.0684 75.4923 48.5977 75.2327 48.1748C74.9732 47.752 74.632 47.3854 74.2292 47.0966C73.8263 46.8078 73.37 46.6028 72.887 46.4934C72.404 46.384 71.9041 46.3726 71.4167 46.4598C70.9292 46.547 70.464 46.731 70.0485 47.001C69.633 47.2711 69.2755 47.6217 68.997 48.0323L52.9674 70.5364L44.9229 62.4687C44.2187 61.8106 43.2872 61.4523 42.3247 61.4693C41.3622 61.4864 40.4439 61.8774 39.7632 62.56C39.0826 63.2427 38.6927 64.1636 38.6757 65.1289C38.6587 66.0941 39.016 67.0283 39.6722 67.7346L50.8176 78.9122C51.199 79.2943 51.6587 79.5887 52.1649 79.7748C52.6711 79.9609 53.2116 80.0343 53.7489 79.9898C54.2862 79.9454 54.8074 79.7842 55.2764 79.5175C55.7454 79.2508 56.1508 78.8848 56.4646 78.4452L75.0403 52.3642Z" fill="#EFC4E2"/>
</g>
<defs>
<clipPath id="clip0_33_463">
<rect width="109" height="109" fill="white"/>
</clipPath>
</defs>
</svg>
