<svg width="217" height="217" viewBox="0 0 217 217" fill="none" xmlns="http://www.w3.org/2000/svg">
<g opacity="0.5" clip-path="url(#clip0_33_471)">
<path fill-rule="evenodd" clip-rule="evenodd" d="M130.643 54.1029C136.775 49.412 145.534 54.4689 144.538 62.1251L139.902 97.7165L169.446 118.083C175.81 122.468 173.71 132.354 166.111 133.774L130.839 140.367L120.593 174.753C118.387 182.161 108.339 183.216 104.642 176.434L87.4718 144.922L51.5964 145.808C43.875 145.997 39.7676 136.763 45.0773 131.154L69.7336 105.088L57.8067 71.2452C55.2374 63.9532 62.7484 57.1921 69.7284 60.5113L102.138 75.9137L130.64 54.1087L130.643 54.1029Z" fill="#DF89C6"/>
</g>
<defs>
<clipPath id="clip0_33_471">
<rect width="158.764" height="158.764" fill="white" transform="translate(79.4276) scale(1.00058) rotate(30)"/>
</clipPath>
</defs>
</svg>
