<svg width="239" height="80" viewBox="0 0 239 80" fill="none" xmlns="http://www.w3.org/2000/svg">
<path d="M9.20212 52.4917C8.64758 52.4917 8.21781 52.3248 7.91282 51.9911C7.60782 51.6574 7.45532 51.2125 7.45532 50.6563V24.3354C7.45532 23.7514 7.60782 23.3065 7.91282 23.0006C8.24554 22.6669 8.68917 22.5 9.24371 22.5C9.74279 22.5 10.131 22.5973 10.4082 22.792C10.7132 22.9867 10.9905 23.3204 11.24 23.7931L22.3863 44.7747H21.097L32.2432 23.7931C32.4927 23.3204 32.7561 22.9867 33.0334 22.792C33.3107 22.5973 33.6988 22.5 34.1979 22.5C34.7525 22.5 35.1822 22.6669 35.4872 23.0006C35.7922 23.3065 35.9447 23.7514 35.9447 24.3354V50.6563C35.9447 51.2125 35.7922 51.6574 35.4872 51.9911C35.21 52.3248 34.7802 52.4917 34.1979 52.4917C33.6157 52.4917 33.172 52.3248 32.867 51.9911C32.5898 51.6574 32.4511 51.2125 32.4511 50.6563V28.173H33.3661L23.3844 46.9021C23.1626 47.2636 22.9269 47.5417 22.6774 47.7364C22.4556 47.9032 22.1367 47.9867 21.7208 47.9867C21.3326 47.9867 20.9999 47.8893 20.7226 47.6947C20.4731 47.5 20.2513 47.2358 20.0572 46.9021L9.95074 28.1313H10.9489V50.6563C10.9489 51.2125 10.7964 51.6574 10.4914 51.9911C10.2141 52.3248 9.78438 52.4917 9.20212 52.4917Z" fill="black"/>
<path d="M51.1002 52.5751C48.9098 52.5751 47.0243 52.158 45.4439 51.3237C43.8912 50.4616 42.6851 49.2519 41.8255 47.6947C40.966 46.1096 40.5362 44.2464 40.5362 42.1051C40.5362 39.9917 40.9521 38.1424 41.7839 36.5573C42.6435 34.9722 43.808 33.7347 45.2775 32.8448C46.7748 31.955 48.48 31.51 50.3931 31.51C51.7518 31.51 52.9717 31.7464 54.0531 32.2191C55.1622 32.6641 56.1049 33.3176 56.8812 34.1796C57.6576 35.0417 58.2399 36.0984 58.628 37.3498C59.0439 38.5734 59.2519 39.9638 59.2519 41.5211C59.2519 41.9661 59.1133 42.3137 58.836 42.564C58.5864 42.7864 58.2121 42.8977 57.713 42.8977H43.4891V40.4783H56.7565L56.0494 41.0623C56.0494 39.6162 55.8276 38.3927 55.384 37.3915C54.9681 36.3626 54.3442 35.584 53.5124 35.0556C52.7083 34.5273 51.6963 34.2631 50.4763 34.2631C49.1454 34.2631 48.0086 34.5829 47.0659 35.2225C46.1232 35.8343 45.4023 36.7102 44.9032 37.8504C44.4041 38.9627 44.1546 40.2558 44.1546 41.7297V41.98C44.1546 44.4828 44.7507 46.3737 45.943 47.6529C47.1352 48.9321 48.8543 49.5717 51.1002 49.5717C51.9874 49.5717 52.8886 49.4605 53.8036 49.238C54.7463 49.0156 55.6474 48.6123 56.5069 48.0284C56.9228 47.7781 57.2971 47.6669 57.6299 47.6947C57.9903 47.6947 58.2814 47.8059 58.5033 48.0284C58.7251 48.223 58.8637 48.4733 58.9192 48.7792C58.9746 49.0573 58.933 49.3632 58.7944 49.6969C58.6558 50.0306 58.3924 50.3226 58.0042 50.5729C57.0892 51.2125 55.994 51.713 54.7185 52.0745C53.4708 52.4082 52.2647 52.5751 51.1002 52.5751Z" fill="black"/>
<path d="M65.082 52.4917C64.4443 52.4917 63.9591 52.3248 63.6263 51.9911C63.2936 51.6574 63.1273 51.1707 63.1273 50.5311V33.5122C63.1273 32.8726 63.2936 32.3999 63.6263 32.094C63.9591 31.7603 64.4166 31.5934 64.9988 31.5934C65.5811 31.5934 66.0247 31.7603 66.3297 32.094C66.6624 32.3999 66.8288 32.8726 66.8288 33.5122V36.7241H66.4129C66.8565 35.0556 67.6883 33.7903 68.9083 32.9283C70.1283 32.0662 71.6672 31.5795 73.5248 31.4683C73.9685 31.4405 74.3289 31.5517 74.6062 31.802C74.8835 32.0245 75.036 32.4138 75.0637 32.97C75.0914 33.4983 74.9667 33.9294 74.6894 34.2631C74.4121 34.569 73.9824 34.7497 73.4001 34.8053L72.6515 34.8471C70.8215 35.0417 69.4074 35.6396 68.4092 36.6407C67.4388 37.6418 66.9536 39.0184 66.9536 40.7703V50.5311C66.9536 51.1707 66.7872 51.6574 66.4545 51.9911C66.1495 52.3248 65.692 52.4917 65.082 52.4917Z" fill="black"/>
<path d="M79.4404 52.4917C78.8027 52.4917 78.3175 52.3248 77.9848 51.9911C77.652 51.6574 77.4857 51.1707 77.4857 50.5311V33.5122C77.4857 32.8726 77.652 32.3999 77.9848 32.094C78.3175 31.7603 78.775 31.5934 79.3573 31.5934C79.9395 31.5934 80.3831 31.7603 80.6881 32.094C81.0209 32.3999 81.1872 32.8726 81.1872 33.5122V36.7241H80.7713C81.215 35.0556 82.0468 33.7903 83.2667 32.9283C84.4867 32.0662 86.0256 31.5795 87.8833 31.4683C88.3269 31.4405 88.6874 31.5517 88.9646 31.802C89.2419 32.0245 89.3944 32.4138 89.4221 32.97C89.4498 33.4983 89.3251 33.9294 89.0478 34.2631C88.7705 34.569 88.3408 34.7497 87.7585 34.8053L87.0099 34.8471C85.1799 35.0417 83.7658 35.6396 82.7677 36.6407C81.7972 37.6418 81.312 39.0184 81.312 40.7703V50.5311C81.312 51.1707 81.1456 51.6574 80.8129 51.9911C80.5079 52.3248 80.0504 52.4917 79.4404 52.4917Z" fill="black"/>
<path d="M97.7613 60C97.3177 60 96.9434 59.8749 96.6384 59.6246C96.3611 59.4021 96.1947 59.0823 96.1393 58.6652C96.1116 58.2759 96.1947 57.8587 96.3888 57.4138L99.217 50.99V52.5751L91.3564 34.2214C91.1623 33.7486 91.093 33.3176 91.1484 32.9283C91.2039 32.5389 91.3841 32.2191 91.6891 31.9689C92.0218 31.7186 92.4655 31.5934 93.02 31.5934C93.4914 31.5934 93.8657 31.7047 94.1429 31.9271C94.4202 32.1496 94.6836 32.5389 94.9332 33.0951L101.463 49.238H100.298L106.953 33.0951C107.175 32.5389 107.438 32.1496 107.743 31.9271C108.048 31.7047 108.464 31.5934 108.991 31.5934C109.462 31.5934 109.823 31.7186 110.072 31.9689C110.349 32.2191 110.516 32.5389 110.571 32.9283C110.627 33.3176 110.543 33.7347 110.322 34.1796L99.8408 58.4983C99.5636 59.0823 99.2724 59.4716 98.9674 59.6663C98.6902 59.8888 98.2881 60 97.7613 60Z" fill="black"/>
<path d="M120.946 52.4172C120.006 52.4172 119.287 52.1552 118.79 51.631C118.292 51.1069 118.043 50.3759 118.043 49.4379V25.4793C118.043 24.5414 118.306 23.8103 118.831 23.2862C119.384 22.7621 120.131 22.5 121.071 22.5C121.9 22.5 122.55 22.6655 123.02 22.9966C123.517 23.3 123.974 23.8379 124.388 24.6103L133.968 42.0724H132.558L142.138 24.6103C142.553 23.8379 142.995 23.3 143.465 22.9966C143.963 22.6655 144.613 22.5 145.414 22.5C146.354 22.5 147.073 22.7621 147.571 23.2862C148.096 23.8103 148.359 24.5414 148.359 25.4793V49.4379C148.359 50.3759 148.11 51.1069 147.612 51.631C147.115 52.1552 146.396 52.4172 145.456 52.4172C144.516 52.4172 143.783 52.1552 143.258 51.631C142.76 51.1069 142.511 50.3759 142.511 49.4379V32.6793H143.424L135.71 46.4586C135.378 46.9828 135.019 47.3828 134.632 47.6586C134.272 47.9069 133.788 48.031 133.18 48.031C132.572 48.031 132.074 47.8931 131.687 47.6172C131.3 47.3414 130.955 46.9552 130.65 46.4586L122.854 32.6379H123.849V49.4379C123.849 50.3759 123.6 51.1069 123.103 51.631C122.633 52.1552 121.914 52.4172 120.946 52.4172Z" fill="#C70039"/>
<path d="M159.804 52.5C158.311 52.5 156.97 52.2103 155.781 51.631C154.592 51.0517 153.666 50.2655 153.003 49.2724C152.339 48.2793 152.007 47.1621 152.007 45.9207C152.007 44.431 152.394 43.2586 153.168 42.4035C153.943 41.5207 155.201 40.9 156.942 40.5414C158.684 40.1552 160.993 39.9621 163.868 39.9621H166.066V43.1897H163.91C162.5 43.1897 161.352 43.2724 160.467 43.4379C159.61 43.5759 158.988 43.8241 158.601 44.1828C158.242 44.5414 158.062 45.0379 158.062 45.6724C158.062 46.4448 158.325 47.0793 158.85 47.5759C159.403 48.0724 160.191 48.3207 161.214 48.3207C162.016 48.3207 162.721 48.1414 163.329 47.7828C163.965 47.3966 164.462 46.8862 164.822 46.2517C165.181 45.5897 165.361 44.8448 165.361 44.0172V39.2586C165.361 38.0448 165.085 37.1897 164.532 36.6931C163.979 36.169 163.039 35.9069 161.712 35.9069C160.965 35.9069 160.149 36.0034 159.265 36.1966C158.408 36.3621 157.454 36.6517 156.403 37.0655C155.795 37.3414 155.256 37.4103 154.786 37.2724C154.316 37.1069 153.956 36.831 153.708 36.4448C153.459 36.031 153.334 35.5897 153.334 35.1207C153.334 34.6241 153.473 34.1552 153.749 33.7138C154.026 33.2448 154.482 32.9 155.118 32.6793C156.417 32.1552 157.634 31.7966 158.767 31.6034C159.928 31.4103 160.993 31.3138 161.96 31.3138C164.089 31.3138 165.831 31.631 167.186 32.2655C168.568 32.8724 169.605 33.8241 170.296 35.1207C170.987 36.3897 171.333 38.031 171.333 40.0448V49.231C171.333 50.2517 171.084 51.0379 170.586 51.5897C170.089 52.1414 169.37 52.4172 168.43 52.4172C167.49 52.4172 166.757 52.1414 166.232 51.5897C165.734 51.0379 165.485 50.2517 165.485 49.231V47.7L165.776 47.9483C165.61 48.8862 165.25 49.7 164.697 50.3897C164.172 51.0517 163.495 51.5759 162.665 51.9621C161.836 52.3207 160.882 52.5 159.804 52.5Z" fill="#C70039"/>
<path d="M185.169 52.5C183.262 52.5 181.658 52.1828 180.359 51.5483C179.087 50.9138 178.133 49.9897 177.497 48.7759C176.889 47.5621 176.585 46.031 176.585 44.1828V36.4035H174.843C174.069 36.4035 173.461 36.1966 173.018 35.7828C172.604 35.369 172.396 34.8034 172.396 34.0862C172.396 33.3138 172.604 32.7345 173.018 32.3483C173.461 31.9345 174.069 31.7276 174.843 31.7276H176.585V28.5828C176.585 27.5345 176.861 26.7483 177.414 26.2241C177.967 25.6724 178.741 25.3966 179.737 25.3966C180.76 25.3966 181.534 25.6724 182.059 26.2241C182.584 26.7483 182.847 27.5345 182.847 28.5828V31.7276H186.787C187.561 31.7276 188.155 31.9345 188.57 32.3483C188.985 32.7345 189.192 33.3138 189.192 34.0862C189.192 34.8034 188.985 35.369 188.57 35.7828C188.155 36.1966 187.561 36.4035 186.787 36.4035H182.847V43.9345C182.847 45.0931 183.11 45.9621 183.635 46.5414C184.188 47.1207 185.059 47.4103 186.248 47.4103C186.662 47.4103 187.049 47.369 187.409 47.2862C187.768 47.2034 188.1 47.1483 188.404 47.1207C188.791 47.0931 189.109 47.2172 189.358 47.4931C189.607 47.7414 189.731 48.3069 189.731 49.1897C189.731 49.8517 189.621 50.431 189.399 50.9276C189.178 51.4241 188.791 51.7828 188.238 52.0034C187.879 52.1414 187.381 52.2517 186.745 52.3345C186.137 52.4448 185.612 52.5 185.169 52.5Z" fill="#C70039"/>
<path d="M200.821 52.5C198.609 52.5 196.674 52.0724 195.015 51.2172C193.384 50.3345 192.126 49.0931 191.241 47.4931C190.357 45.8931 189.914 44.0035 189.914 41.8241C189.914 40.1966 190.163 38.7345 190.661 37.4379C191.158 36.1414 191.877 35.0379 192.817 34.1276C193.785 33.2172 194.946 32.5276 196.301 32.0586C197.656 31.5621 199.162 31.3138 200.821 31.3138C201.678 31.3138 202.591 31.4241 203.558 31.6448C204.526 31.8379 205.48 32.1828 206.42 32.6793C206.973 32.9276 207.346 33.2862 207.54 33.7552C207.761 34.1966 207.844 34.6655 207.788 35.1621C207.733 35.631 207.553 36.0586 207.249 36.4448C206.973 36.8034 206.613 37.0517 206.171 37.1897C205.729 37.3 205.231 37.2172 204.678 36.9414C204.153 36.6379 203.6 36.4172 203.019 36.2793C202.466 36.1414 201.941 36.0724 201.443 36.0724C200.614 36.0724 199.881 36.2103 199.245 36.4862C198.609 36.7345 198.07 37.1069 197.628 37.6035C197.213 38.0724 196.882 38.6655 196.633 39.3828C196.411 40.1 196.301 40.9276 196.301 41.8655C196.301 43.6862 196.743 45.1207 197.628 46.169C198.54 47.1897 199.812 47.7 201.443 47.7C201.941 47.7 202.466 47.6448 203.019 47.5345C203.572 47.3966 204.125 47.1759 204.678 46.8724C205.231 46.5966 205.729 46.5276 206.171 46.6655C206.613 46.8034 206.959 47.0655 207.208 47.4517C207.484 47.8103 207.636 48.2379 207.664 48.7345C207.719 49.2034 207.636 49.6724 207.415 50.1414C207.222 50.5828 206.862 50.9276 206.337 51.1759C205.397 51.6448 204.457 51.9759 203.517 52.169C202.577 52.3897 201.678 52.5 200.821 52.5Z" fill="#C70039"/>
<path d="M213.036 52.4172C212.013 52.4172 211.225 52.1414 210.672 51.5897C210.147 51.0379 209.884 50.2517 209.884 49.231V25.6862C209.884 24.6379 210.147 23.8517 210.672 23.3276C211.225 22.7759 212.013 22.5 213.036 22.5C214.032 22.5 214.792 22.7759 215.317 23.3276C215.87 23.8517 216.147 24.6379 216.147 25.6862V35.5345H215.566C216.202 34.1828 217.142 33.1483 218.386 32.431C219.658 31.6862 221.095 31.3138 222.699 31.3138C224.33 31.3138 225.671 31.631 226.722 32.2655C227.772 32.8724 228.56 33.8103 229.086 35.0793C229.611 36.3207 229.874 37.9069 229.874 39.8379V49.231C229.874 50.2517 229.597 51.0379 229.044 51.5897C228.519 52.1414 227.745 52.4172 226.722 52.4172C225.726 52.4172 224.952 52.1414 224.399 51.5897C223.874 51.0379 223.611 50.2517 223.611 49.231V40.1276C223.611 38.7207 223.349 37.7138 222.823 37.1069C222.326 36.4724 221.552 36.1552 220.501 36.1552C219.174 36.1552 218.11 36.569 217.308 37.3966C216.534 38.2241 216.147 39.3276 216.147 40.7069V49.231C216.147 51.3552 215.11 52.4172 213.036 52.4172Z" fill="#C70039"/>
</svg>
