<svg width="9" height="9" viewBox="0 0 9 9" fill="none" xmlns="http://www.w3.org/2000/svg">
<path d="M7.12913 8.65165L7.12553 8.65213L7.11362 8.65261C7.04384 8.65514 6.97405 8.65669 6.90428 8.65725C6.06346 8.66049 5.22754 8.57666 4.41038 8.40714C2.95938 8.10028 1.21165 7.41084 0.305813 5.84189C-0.3701 4.67117 0.116937 3.1521 1.35175 2.43918C1.69408 2.23937 2.07542 2.11644 2.46739 2.07953C2.85937 2.04262 3.2519 2.09268 3.61579 2.22598C3.68231 1.84411 3.83527 1.47907 4.0633 1.15802C4.29133 0.836965 4.58856 0.568166 4.93287 0.371618C6.16726 -0.34106 7.72634 -0.00330769 8.40225 1.16741C9.30832 2.73676 9.03152 4.59506 8.57131 6.00429C8.30955 6.79674 7.9642 7.56259 7.54097 8.28913C7.50568 8.3494 7.46952 8.4092 7.4325 8.4685L7.42613 8.47857L7.42415 8.48185L7.42314 8.48297C7.39137 8.53193 7.34813 8.57291 7.29718 8.60232C7.24623 8.63174 7.18912 8.6487 7.13083 8.65173L7.12936 8.65205L7.12913 8.65165Z" fill="#F4EBF2"/>
</svg>
